<svg width="6" height="6" viewBox="0 0 6 6" fill="none" xmlns="http://www.w3.org/2000/svg">
<path d="M2.75437 0.0536385C2.68417 0.0536385 2.63737 0.100441 2.63737 0.170646V0.87269C2.63737 0.942895 2.68417 0.989698 2.75437 0.989698C2.82458 0.989698 2.87138 0.942895 2.87138 0.87269V0.287653C4.17016 0.346157 5.21153 1.42263 5.21153 2.74481C5.21153 4.1021 4.11166 5.20196 2.75437 5.20196C1.39709 5.20196 0.297217 4.1021 0.297217 2.74481C0.297217 2.6746 0.250414 2.6278 0.180209 2.6278C0.110005 2.6278 0.0632019 2.6746 0.0632019 2.74481C0.0632019 4.2308 1.26838 5.43598 2.75437 5.43598C4.24037 5.43598 5.44554 4.2308 5.44554 2.74481C5.44554 1.25881 4.24037 0.0536385 2.75437 0.0536385Z" fill="#D5D7DD"/>
<path d="M2.28177 3.08011C2.38663 3.18439 2.53808 3.25391 2.68954 3.25391C2.841 3.25391 2.99245 3.19598 3.09731 3.08011C3.31867 2.85995 3.31867 2.48916 3.09731 2.25741C2.9109 2.07202 1.43129 1.19139 1.25653 1.08711C1.20993 1.06393 1.15167 1.06393 1.11672 1.11028C1.08177 1.14504 1.07012 1.20298 1.09342 1.24933C1.20993 1.42314 2.09537 2.89471 2.28177 3.08011Z" fill="#68D585"/>
</svg>
