<svg width="7" height="7" viewBox="0 0 7 7" fill="none" xmlns="http://www.w3.org/2000/svg">
<g clip-path="url(#clip0_9_4324)">
<circle opacity="0.100028" cx="3.14009" cy="3.87541" r="3.12758" fill="#473BF0"/>
<path d="M3.31361 4.62056C3.29713 4.62056 3.28311 4.61561 3.27157 4.60572C3.26168 4.59418 3.25673 4.58017 3.25673 4.56368V3.17882L2.84622 3.49536C2.83303 3.50525 2.81902 3.50937 2.80418 3.50772C2.78934 3.50608 2.77698 3.49866 2.76709 3.48547L2.70279 3.40386C2.6929 3.38902 2.68878 3.37418 2.69042 3.35935C2.69372 3.34451 2.70196 3.33214 2.71515 3.32225L3.25426 2.90679C3.2658 2.89855 3.27652 2.8936 3.28641 2.89196C3.2963 2.89031 3.30702 2.88948 3.31856 2.88948H3.44468C3.46117 2.88948 3.47436 2.89525 3.48425 2.90679C3.49414 2.91668 3.49908 2.92987 3.49908 2.94636V4.56368C3.49908 4.58017 3.49414 4.59418 3.48425 4.60572C3.47436 4.61561 3.46117 4.62056 3.44468 4.62056H3.31361Z" fill="#473BF0"/>
</g>
<defs>
<clipPath id="clip0_9_4324">
<rect width="6.25515" height="6.25515" fill="white" transform="translate(0.0125122 0.747833)"/>
</clipPath>
</defs>
</svg>
