<svg width="7" height="7" viewBox="0 0 7 7" fill="none" xmlns="http://www.w3.org/2000/svg">
<g clip-path="url(#clip0_9_4330)">
<circle opacity="0.100028" cx="3.14021" cy="3.78628" r="3.12758" fill="#473BF0"/>
<path d="M2.93809 4.53146C2.92161 4.53146 2.90759 4.52652 2.89605 4.51663C2.88616 4.50509 2.88121 4.49107 2.88121 4.47459V4.39545C2.88121 4.38061 2.88534 4.36413 2.89358 4.34599C2.90182 4.32786 2.91831 4.30807 2.94304 4.28664L3.46731 3.76237C3.55139 3.69148 3.61733 3.6313 3.66514 3.58184C3.7146 3.53074 3.74923 3.4821 3.76901 3.43594C3.79044 3.38978 3.80116 3.34197 3.80116 3.29251C3.80116 3.19853 3.77478 3.12434 3.72202 3.06994C3.66927 3.01389 3.59096 2.98586 3.48709 2.98586C3.42115 2.98586 3.36427 2.99987 3.31646 3.0279C3.26865 3.05428 3.23073 3.09137 3.2027 3.13918C3.17632 3.18534 3.15901 3.2381 3.15077 3.29745C3.14747 3.31889 3.1384 3.33372 3.12356 3.34197C3.11038 3.35021 3.09801 3.35433 3.08647 3.35433H2.95788C2.94304 3.35433 2.93067 3.35021 2.92078 3.34197C2.91089 3.33207 2.90594 3.32053 2.90594 3.30734C2.90759 3.2447 2.92078 3.18205 2.94551 3.1194C2.97024 3.0551 3.00651 2.9974 3.05432 2.94629C3.10378 2.89518 3.16396 2.85397 3.23485 2.82264C3.30739 2.78967 3.39147 2.77318 3.48709 2.77318C3.61733 2.77318 3.72367 2.79709 3.8061 2.8449C3.89018 2.89106 3.95201 2.95289 3.99158 3.03037C4.03114 3.10786 4.05093 3.19276 4.05093 3.28509C4.05093 3.35763 4.03856 3.4244 4.01383 3.4854C3.9891 3.54475 3.95283 3.60328 3.90502 3.66098C3.85886 3.71703 3.80116 3.77474 3.73191 3.83409L3.25711 4.31632H4.02867C4.04681 4.31632 4.06082 4.32126 4.07071 4.33115C4.08225 4.34105 4.08802 4.35506 4.08802 4.37319V4.47459C4.08802 4.49107 4.08225 4.50509 4.07071 4.51663C4.06082 4.52652 4.04681 4.53146 4.02867 4.53146H2.93809Z" fill="#473BF0"/>
</g>
<defs>
<clipPath id="clip0_9_4330">
<rect width="6.25515" height="6.25515" fill="white" transform="translate(0.0126343 0.658707)"/>
</clipPath>
</defs>
</svg>
