<svg width="7" height="7" viewBox="0 0 7 7" fill="none" xmlns="http://www.w3.org/2000/svg">
<g clip-path="url(#clip0_9_4336)">
<circle opacity="0.100028" cx="3.14021" cy="3.69726" r="3.12758" fill="#473BF0"/>
<path d="M3.40732 4.46722C3.30346 4.46722 3.21278 4.45485 3.1353 4.43012C3.05781 4.40375 2.99269 4.36912 2.93993 4.32626C2.88718 4.2834 2.84678 4.23641 2.81876 4.1853C2.79238 4.13419 2.77837 4.08144 2.77672 4.02703C2.77672 4.01219 2.78166 4.00065 2.79155 3.99241C2.80145 3.98417 2.81381 3.98004 2.82865 3.98004H2.94982C2.96466 3.98004 2.97785 3.98334 2.98939 3.98994C3.00093 3.99653 3.01082 4.01054 3.01907 4.03198C3.03555 4.09133 3.06358 4.13749 3.10315 4.17046C3.14437 4.20344 3.19135 4.22652 3.24411 4.23971C3.29851 4.25125 3.35292 4.25702 3.40732 4.25702C3.52108 4.25702 3.6134 4.22981 3.6843 4.17541C3.75519 4.121 3.79063 4.04104 3.79063 3.93553C3.79063 3.82837 3.75849 3.75171 3.69419 3.70555C3.62989 3.65938 3.54086 3.6363 3.42711 3.6363H3.19218C3.17569 3.6363 3.16168 3.63136 3.15014 3.62146C3.14024 3.61157 3.1353 3.59756 3.1353 3.57942V3.51265C3.1353 3.49782 3.13777 3.48545 3.14272 3.47556C3.14931 3.46402 3.15591 3.45413 3.1625 3.44588L3.64226 2.92161H2.91273C2.89624 2.92161 2.88223 2.91667 2.87069 2.90678C2.8608 2.89688 2.85585 2.88287 2.85585 2.86474V2.77076C2.85585 2.75263 2.8608 2.73861 2.87069 2.72872C2.88223 2.71718 2.89624 2.71141 2.91273 2.71141H3.89944C3.91758 2.71141 3.93159 2.71718 3.94148 2.72872C3.95303 2.73861 3.9588 2.75263 3.9588 2.77076V2.85979C3.9588 2.87133 3.9555 2.88205 3.9489 2.89194C3.94396 2.90018 3.93819 2.90843 3.93159 2.91667L3.45431 3.44836L3.49388 3.45083C3.60269 3.45413 3.69749 3.47391 3.77827 3.51018C3.8607 3.54645 3.92417 3.60086 3.96869 3.6734C4.01485 3.74429 4.03793 3.83414 4.03793 3.94295C4.03793 4.05341 4.01073 4.14821 3.95632 4.22734C3.90192 4.30483 3.8269 4.36418 3.73128 4.4054C3.63566 4.44661 3.52768 4.46722 3.40732 4.46722Z" fill="#473BF0"/>
</g>
<defs>
<clipPath id="clip0_9_4336">
<rect width="6.25515" height="6.25515" fill="white" transform="translate(0.0126343 0.569687)"/>
</clipPath>
</defs>
</svg>
