<svg width="5" height="5" viewBox="0 0 5 5" fill="none" xmlns="http://www.w3.org/2000/svg">
<circle cx="2.7491" cy="2.33766" r="2.1093" fill="#68D585"/>
<path d="M2.57416 2.70124V2.63579C2.57118 2.55574 2.58686 2.47605 2.62009 2.40244C2.66264 2.32761 2.7208 2.26183 2.79102 2.20909C2.87355 2.1489 2.94712 2.07836 3.00974 1.99941C3.04117 1.94798 3.05686 1.88922 3.05502 1.82977C3.05948 1.75731 3.02868 1.68692 2.97147 1.63883C2.90233 1.58991 2.81708 1.56604 2.73107 1.57151C2.66487 1.5714 2.59891 1.57893 2.53463 1.59394C2.45855 1.61344 2.38498 1.64088 2.31525 1.67577L2.24002 1.51214C2.39506 1.43348 2.56808 1.39227 2.74382 1.39215C2.90636 1.39215 3.03261 1.43013 3.12259 1.5061C3.21561 1.58877 3.26508 1.7065 3.25755 1.82733C3.25856 1.88022 3.25016 1.93288 3.23269 1.98311C3.21553 2.02896 3.19078 2.07193 3.15938 2.11037C3.09545 2.18019 3.02555 2.24486 2.9504 2.30372C2.8843 2.35253 2.82683 2.41107 2.78018 2.47712C2.74991 2.53412 2.73564 2.59758 2.73873 2.66136V2.70137L2.57416 2.70124Z" fill="white"/>
<circle cx="2.67657" cy="3.13775" r="0.145469" fill="white"/>
</svg>
