<svg width="5" height="7" viewBox="0 0 5 7" fill="none" xmlns="http://www.w3.org/2000/svg">
<path fill-rule="evenodd" clip-rule="evenodd" d="M3.5328 0.908211H0.93255C0.60633 0.908608 0.341974 1.17738 0.341583 1.50906V5.83517C0.341974 6.16685 0.60633 6.43562 0.93255 6.43602H3.5328C3.85902 6.43562 4.12338 6.16685 4.12377 5.83517V1.50906C4.12338 1.17738 3.85902 0.908608 3.5328 0.908211ZM3.88747 5.47466C3.88747 5.54103 3.83456 5.59483 3.76928 5.59483H0.696253C0.630976 5.59483 0.578059 5.54103 0.578059 5.47466V1.62922C0.578059 1.56286 0.630976 1.50905 0.696253 1.50905H3.76928C3.83456 1.50905 3.88747 1.56286 3.88747 1.62922V5.47466Z" fill="#68D585"/>
</svg>
